<svg id="Capa_1" enable-background="new 0 0 512 512" height="512" viewBox="0 0 512 512" width="512" xmlns="http://www.w3.org/2000/svg"><g><g><path d="m301.206 21.135h175.751c13.831 0 25.043 11.212 25.043 25.042v49.007h-492v-49.007c0-13.831 11.212-25.042 25.043-25.042h175.751" fill="#c193dc"/><path d="m476.957 490.865h-441.914c-13.831 0-25.043-11.212-25.043-25.042v-370.638h492v370.638c0 13.83-11.212 25.042-25.043 25.042z" fill="#faf7f5"/><g><g><path d="m128.979 330.745c-.056-.035-1.639-.966-1.696-1.001-29.355-18.515-48.896-51.234-48.896-88.431 0-57.606 46.866-104.472 104.472-104.472 47.049 0 86.934 31.263 99.973 74.107 2.925 9.613 4.499 19.809 4.499 30.365 0 37.948-20.338 71.235-50.686 89.535" fill="#ccf5fc"/><g><ellipse cx="182.859" cy="219.139" fill="#ffdcd5" rx="41.865" ry="41.865" transform="matrix(.158 -.987 .987 .158 -62.437 365.047)"/><path d="m236.641 279.835v51.007c-15.719 9.484-34.13 14.944-53.782 14.944-19.66 0-38.064-5.46-53.782-14.937v-51.015c0-10.401 8.431-18.833 18.833-18.833h69.9c10.4.001 18.831 8.433 18.831 18.834z" fill="#ff9eb1"/></g></g><path d="m421.774 313.584h-68.946c-6.539 0-11.839-5.301-11.839-11.839v-69.148c0-6.539 5.301-11.839 11.839-11.839h68.946c6.539 0 11.839 5.301 11.839 11.839v69.148c0 6.539-5.301 11.839-11.839 11.839z" fill="#ffee80"/></g><g><path d="m68.099 384.596h375.802v49.787h-375.802z" fill="#ccf5fc"/></g></g><g><path d="m476.957 11.135h-175.751c-5.523 0-10 4.477-10 10 0 5.522 4.477 10 10 10h175.751c8.295 0 15.043 6.748 15.043 15.043v39.007h-472v-39.007c0-8.295 6.748-15.043 15.042-15.043h175.751c5.523 0 10-4.478 10-10 0-5.523-4.477-10-10-10h-175.751c-19.322 0-35.042 15.719-35.042 35.043v419.645c0 19.323 15.72 35.043 35.042 35.043h441.915c19.323 0 35.043-15.72 35.043-35.043v-419.645c0-19.324-15.72-35.043-35.043-35.043zm15.043 454.687c0 8.295-6.748 15.043-15.043 15.043h-441.915c-8.294 0-15.042-6.748-15.042-15.043v-360.637h472z"/><path d="m250.27 29.45c3.496 2.326 8.183 2.191 11.545-.322 3.332-2.49 4.776-6.923 3.565-10.898-1.189-3.904-4.701-6.709-8.76-7.053-4.221-.358-8.289 2.108-9.975 5.983-1.909 4.387-.332 9.629 3.625 12.29z"/><path d="m347.894 68.16c5.522 0 10-4.478 10-10s-4.478-10-10-10h-8.17c-5.522 0-10 4.478-10 10s4.478 10 10 10z"/><path d="m397.681 68.16c5.522 0 10-4.478 10-10s-4.478-10-10-10h-8.17c-5.522 0-10 4.478-10 10s4.478 10 10 10z"/><path d="m447.468 68.16c5.522 0 10-4.478 10-10s-4.478-10-10-10h-8.17c-5.523 0-10 4.478-10 10s4.477 10 10 10z"/><path d="m121.872 338.152c.039.025.609.369 1.182.707l.176.104c.22.159.448.309.683.451 17.766 10.711 38.149 16.372 58.946 16.372 20.67 0 40.928-5.594 58.61-16.179.114-.063.227-.128.339-.196 16.606-10.014 30.513-24.176 40.217-40.957 10.013-17.315 15.306-37.075 15.306-57.142 0-11.327-1.659-22.523-4.933-33.276-6.994-22.984-21.478-43.651-40.781-58.195-19.972-15.047-43.748-23-68.758-23-63.12 0-114.472 51.352-114.472 114.472 0 39.515 20.023 75.736 53.485 96.839zm104.769-13.148c-13.458 7.069-28.48 10.782-43.782 10.782-15.297 0-30.322-3.712-43.783-10.776v-45.175c0-4.87 3.962-8.833 8.833-8.833h34.521c.143.001.286.002.43.002.143 0 .286-.001.43-.002h34.52c4.87 0 8.833 3.963 8.833 8.833v45.169zm-75.647-105.865c0-17.57 14.294-31.865 31.865-31.865 17.57 0 31.865 14.295 31.865 31.865 0 17.468-14.129 31.699-31.559 31.863h-.612c-17.431-.165-31.559-14.395-31.559-31.863zm31.865-72.298c41.221 0 78.397 27.559 90.406 67.019 2.697 8.864 4.065 18.101 4.065 27.453 0 26.529-11.429 51.843-30.689 69.593v-31.07c0-14.009-10.043-25.716-23.306-28.301 7.123-8.882 11.389-20.15 11.389-32.395 0-28.599-23.267-51.865-51.865-51.865-28.599 0-51.865 23.267-51.865 51.865 0 12.245 4.266 23.513 11.389 32.395-13.264 2.585-23.306 14.292-23.306 28.301v31.138c-19.455-17.751-30.689-42.785-30.689-69.66-.001-52.093 42.379-94.473 94.471-94.473z"/><path d="m352.827 323.584h68.946c12.043 0 21.84-9.797 21.84-21.839v-69.148c0-9.382-5.947-17.401-14.27-20.486v-11.078c0-23.153-18.86-41.99-42.043-41.99s-42.044 18.837-42.044 41.99v11.078c-8.322 3.085-14.268 11.104-14.268 20.486v69.148c0 12.042 9.797 21.839 21.839 21.839zm70.786-21.839c0 1.014-.825 1.839-1.84 1.839h-68.946c-1.014 0-1.839-.825-1.839-1.839v-69.148c0-1.014.825-1.839 1.839-1.839h68.946c1.015 0 1.84.825 1.84 1.839zm-36.312-122.702c12.154 0 22.043 9.865 22.043 21.99v9.725h-44.087v-9.725c0-12.125 9.889-21.99 22.044-21.99z"/><path d="m395.459 252.452h-16.317c-5.522 0-10 4.478-10 10 0 4.894 3.516 8.966 8.159 9.83v1.805c0 5.523 4.477 10 10 10 5.522 0 10-4.477 10-10v-1.806c4.643-.865 8.158-4.937 8.158-9.83 0-5.521-4.478-9.999-10-9.999z"/><path d="m68.099 444.383h375.803c5.522 0 10-4.478 10-10v-49.787c0-5.522-4.478-10-10-10h-375.803c-5.523 0-10 4.478-10 10v49.787c0 5.522 4.477 10 10 10zm10-49.787h355.803v29.787h-355.803z"/></g></g></svg>